# xmcd
#
# Track frame offsets:
#	150
#	16728
#	33447
#	53070
#	67710
#	85866
#	102897
#	119376
#	133830
#	149046
#	165879
#	181395
#	198123
#	215262
#	232026
#	248967
#	266367
#	284199
#	302214
#	317658
#
# Disc length: 4427 seconds
#
# Revision: 1
# Processed by: cddbd v1.5.1PL2 Copyright (c) Steve Scherf et al.
# Submitted via: EasyCDDAExtractor 6.2.0.3
#
DISCID=1b114914
DTITLE=Various Artist - 2x plus 2 Groove CD 1
DYEAR=2005
DGENRE=groove
TTITLE0=Magic system - Bouger bouger
TTITLE1=Gorillaz - Feel good Inc.
TTITLE2=Rohff - Ca fait plaisir
TTITLE3=Papa ap - Gasolina
TTITLE4=Amel Bent - Le droit a l'erreur
TTITLE5=Leslie - Vivons pour demain
TTITLE6=Apollo - Ma tete et mon son
TTITLE7=Willy denzey - C'est ecrit dans l'histoire
TTITLE8=Cüva - In da club
TTITLE9=MVP - Rock ya body
TTITLE10=Slaï - Apres la tempete
TTITLE11=Rupee - Tempted to touch
TTITLE12=M. Pokora - Elle me controle
TTITLE13=Ciara - Goodies
TTITLE14=Usher - Caught up
TTITLE15=John Legend - Stay with you
TTITLE16=Intouchable - La gagne
TTITLE17=Culture club - Do tou really want to hurt me ?
TTITLE18=Projet facteur X² - Show chaud
TTITLE19=Plexus - L'alarme
EXTD=
EXTT0=
EXTT1=
EXTT2=
EXTT3=
EXTT4=
EXTT5=
EXTT6=
EXTT7=
EXTT8=
EXTT9=
EXTT10=
EXTT11=
EXTT12=
EXTT13=
EXTT14=
EXTT15=
EXTT16=
EXTT17=
EXTT18=
EXTT19=
PLAYORDER=
